<svg xmlns="http://www.w3.org/2000/svg" viewBox="26350 3550 25975 14200"><g fill="#0A0A0A"><path d="M31662.1 13859.47c500,0 1000,0 1500,0 0,-2257.68 0,-4515.36 0,-6773.04 875,1666.67 1750,3333.33 2625,5000 564.72,-1075.65 1129.44,-2151.31 1541.34,-2929.8 257.15,-465.1 347.21,-624.03 448.18,-784.59 105.23,-167.33 222.31,-336.42 341.5,-493.49 89.45,-117.89 180.1,-229.01 272.24,-334.84 91.17,-104.73 183.79,-204.28 290.89,-302.59 -758.35,2216.87 -16.01,4439.14 1922.48,5755.14 1938.49,1316 4277.86,1185.82 6058.37,-337.12 -325,-379.97 -650,-759.93 -975,-1139.9 -1494.71,1278.48 -3458.96,1176.49 -4813.22,-249.91 -1354.27,-1426.41 -1354.27,-3393.31 0,-4819.72 1354.26,-1426.4 3318.51,-1528.39 4813.22,-249.91 325,-379.97 650,-759.93 975,-1139.9 -977.7,-836.27 -2194.51,-1254.16 -3479.72,-1195.05 -91.7,3.24 -183.4,6.49 -275.05,11.26 -476.96,24.83 -952.4,91.06 -1439.31,197.62 -316.58,69.29 -638.01,155.62 -919.64,252.16 -256.47,87.91 -479.94,184.29 -713.49,298.45 -420.05,205.32 -872.71,468.16 -1281.38,773.64 -580.36,433.8 -1071.98,953.57 -1518.49,1523.76 -471.41,602.01 -892.53,1260.22 -1247.92,1937.83 -875,-1666.67 -1750,-3333.33 -2625,-5000 -500,0 -1000,0 -1500,0 0,3333.33 0,6666.67 0,10000"/><path d="M41120.81 13859.47c-1198.08,-548.91 -2159.59,-1510.72 -2708.71,-2708.71l0 2708.71 2708.71 0z"/><path d="M40873.88 11269.33c-1354.27,-1426.41 -1354.27,-3393.31 0,-4819.72 1354.26,-1426.4 3318.51,-1528.39 4813.22,-249.91 325,-379.97 650,-759.93 975,-1139.9 -977.7,-836.27 -2194.51,-1254.16 -3479.72,-1195.05 -91.7,3.24 -183.4,6.49 -275.05,11.26 -476.96,24.83 -952.4,91.06 -1439.31,197.62 -316.58,69.29 -638.01,155.62 -919.64,252.16 -256.47,87.91 -479.94,184.29 -713.49,298.45 -420.05,205.32 -872.71,468.16 -1281.38,773.64 -580.36,433.8 -1071.98,953.57 -1518.49,1523.76 -471.41,602.01 -892.53,1260.22 -1247.92,1937.83 -875,-1666.67 -1750,-3333.33 -2625,-5000 -500,0 -1000,0 -1500,0 0,3333.33 0,6666.67 0,10000 500,0 1000,0 1500,0 0,-2257.68 0,-4515.36 0,-6773.04 875,1666.67 1750,3333.33 2625,5000 564.72,-1075.65 1129.44,-2151.31 1541.34,-2929.8 257.15,-465.1 347.21,-624.03 448.18,-784.59 105.23,-167.33 222.31,-336.42 341.5,-493.49 89.45,-117.89 180.1,-229.01 272.24,-334.84 91.17,-104.73 183.79,-204.28 290.89,-302.59 -758.35,2216.87 -16.01,4439.14 1922.48,5755.14 1938.49,1316 4277.86,1185.82 6058.37,-337.12 -325,-379.97 -650,-759.93 -975,-1139.9 -1494.71,1278.48 -3458.96,1176.49 -4813.22,-249.91z"/><g transform="translate(26285.70,17440.49) scale(3.527780,-3.527780)"><path d="M105.001 0l0 700.001 81.9977 0 314.002 -529.001 -43.9993 0 309.999 529.001 82.0006 0 0.997795 -700.001 -95.998 0 -1.00063 549 23.0003 0 -276.001 -464 -46.0006 0 -277.999 464 24.9987 0 0 -549 -95.998 0z"/></g><g transform="translate(29654.73,17440.49) scale(3.527780,-3.527780)"><path d="M105.001 0l0 700.001 493.999 0 0 -87.0009 -394.001 0 0 -525.999 408.002 0 0 -87.0009 -507.999 0zm90.9977 313.001l0 84.9996 360.003 0 0 -84.9996 -360.003 0z"/></g><g transform="translate(32014.81,17440.49) scale(3.527780,-3.527780)"><path d="M105.001 0l0 700.001 272.999 0c90.6661,0 162,-21.5008 214.001,-64.5023 51.9987,-42.9987 77.9981,-102.832 77.9981,-179.498 0,-50.6664 -11.6646,-94.1669 -34.9993,-130.501 -23.332,-36.3316 -56.6674,-64.165 -100.001,-83.5001 -43.3332,-19.3323 -95.6664,-28.9984 -157,-28.9984l-218.001 0 45 46.0006 0 -259.001 -99.9977 0zm468 0l-178.001 254.001 107.002 0 180 -254.001 -109.001 0zm-368.002 249.001l-45 48.9997 215.002 0c64.0006,0 112.499,13.8331 145.499,41.4992 33.0009,27.6661 49.4986,66.5007 49.4986,116.501 0,50.0003 -16.4976,88.6648 -49.4986,115.999 -33.0009,27.3345 -81.4988,41.0003 -145.499,41.0003l-215.002 0 45 50.0003 0 -414z"/></g><g transform="translate(34579.51,17440.49) scale(3.527780,-3.527780)"><path d="M417.999 -7.99937c-53.3338,0 -102.501,8.83275 -147.501,26.4983 -45,17.6683 -83.999,42.6671 -117,75.0018 -32.9981,32.3319 -58.833,70.1659 -77.4992,113.499 -18.6661,43.3332 -28.0006,91.0006 -28.0006,142.999 0,52.0015 9.33448,99.6689 28.0006,143.002 18.6661,43.3332 44.6683,81.1644 78.0009,113.499 33.3326,32.3319 72.4989,57.3335 117.499,74.999 45,17.6683 94.1669,26.5011 147.501,26.5011 54,0 103.833,-9.16724 149.499,-27.5017 45.6661,-18.3316 84.5007,-45.4989 116.501,-81.4988l-65.0012 -63c-26.6655,28.0006 -56.6645,48.8324 -89.9999,62.5011 -33.3326,13.6658 -68.9981,20.5001 -106.999,20.5001 -39.3335,0 -75.8324,-6.66708 -109.499,-20.0012 -33.6671,-13.3342 -62.8327,-32.0003 -87.4998,-56.0012 -24.6671,-23.9981 -43.8349,-52.4976 -57.5008,-85.4985 -13.6658,-33.0009 -20.5001,-68.8337 -20.5001,-107.501 0,-38.6645 6.83433,-74.5001 20.5001,-107.498 13.6658,-33.0009 32.8337,-61.5004 57.5008,-85.5014 24.6671,-24.0009 53.8327,-42.6671 87.4998,-55.9984 33.6671,-13.3342 70.1659,-20.0012 109.499,-20.0012 38.0012,0 73.6667,6.83433 106.999,20.5001 33.3354,13.6658 63.3344,34.8321 89.9999,63.4989l65.0012 -63c-32.0003,-36 -70.8349,-63.3316 -116.501,-81.9977 -45.6661,-18.669 -95.8336,-28.0006 -150.5,-28.0006z"/></g><g transform="translate(37094.82,17440.49) scale(3.527780,-3.527780)"><path d="M421.001 -7.99937c-53.3338,0 -102.835,8.99999 -148.501,27 -45.6661,18 -85.1669,43.166 -118.499,75.5007 -33.3326,32.3319 -59.3348,70.1659 -78.0009,113.499 -18.6661,43.3332 -28.0006,90.6661 -28.0006,141.999 0,51.3354 9.33448,98.6683 28.0006,142.001 18.6661,43.3332 44.6683,81.1672 78.0009,113.499 33.3326,32.3348 72.6661,57.5008 118.001,75.5007 45.3316,18 95.0003,27 149,27 53.331,0 102.498,-8.83275 147.498,-26.5011 45,-17.6655 84.3335,-42.6671 118.001,-74.999 33.6671,-32.3348 59.6664,-70.1659 78.0009,-113.499 18.3316,-43.3332 27.4989,-91.0006 27.4989,-143.002 0,-51.9987 -9.16724,-99.6661 -27.4989,-142.999 -18.3345,-43.3332 -44.3338,-81.1672 -78.0009,-113.499 -33.6671,-32.3348 -73.0006,-57.3335 -118.001,-75.0018 -45,-17.6655 -94.1669,-26.4983 -147.498,-26.4983zm0 88.9993c38.6645,0 74.5001,6.66708 107.498,20.0012 33.0009,13.3313 61.6677,32.1647 86.0003,56.5001 24.3326,24.3326 43.3332,52.8321 56.999,85.4985 13.6687,32.6664 20.5001,68.3348 20.5001,106.999 0,38.6674 -6.83149,74.3329 -20.5001,107.002 -13.6658,32.6664 -32.6664,61.1659 -56.999,85.4985 -24.3326,24.3326 -52.9993,43.166 -86.0003,56.5001 -32.9981,13.3342 -68.8337,20.0012 -107.498,20.0012 -39.3335,0 -75.5007,-6.66708 -108.502,-20.0012 -33.0009,-13.3342 -61.8321,-32.1675 -86.4992,-56.5001 -24.6671,-24.3326 -43.8349,-52.8321 -57.5008,-85.4985 -13.6658,-32.6693 -20.5001,-68.3348 -20.5001,-107.002 0,-38.6645 6.83433,-74.3329 20.5001,-106.999 13.6658,-32.6664 32.8337,-61.1659 57.5008,-85.4985 24.6671,-24.3354 53.4982,-43.1688 86.4992,-56.5001 33.0009,-13.3342 69.1681,-20.0012 108.502,-20.0012z"/></g><g transform="translate(40058.15,17440.49) scale(3.527780,-3.527780)"><path d="M105.001 0l0 700.001 81.9977 0 463.002 -575.002 -43.0015 0 0 575.002 100.001 0 0 -700.001 -82.0006 0 -462.999 574.999 42.9987 0 0 -574.999 -99.9977 0z"/></g><g transform="translate(42922.71,17440.49) scale(3.527780,-3.527780)"><path d="M308.999 -7.99937c-53.331,0 -104.332,8.16661 -153,24.4998 -48.6652,16.3332 -86.9981,37.4995 -114.999,63.4989l37.0006 78.0009c26.6655,-23.3348 60.667,-42.6671 101.999,-57.9996 41.3348,-15.3326 84.3335,-23.0003 128.999,-23.0003 40.6686,0 73.6667,4.66582 98.9999,14.0003 25.3332,9.33165 44.0022,22.1669 56.0012,38.5001 11.999,16.3332 18,34.8321 18,55.4995 0,24.0009 -7.83212,43.3332 -23.4992,57.9996 -15.6671,14.6664 -36,26.5011 -61.0015,35.5011 -24.9987,8.99999 -52.5004,16.8321 -82.4995,23.4992 -29.999,6.66708 -60.1653,14.4992 -90.4988,23.4992 -30.3335,8.99999 -57.9996,20.5001 -83.0012,34.5005 -24.9987,14.0003 -45.1672,32.8337 -60.4998,56.5001 -15.3326,23.6664 -23.0003,54.1672 -23.0003,91.4995 0,36 9.50173,69.1681 28.4995,99.5017 19.0006,30.3335 48.3335,54.6661 88.0015,72.9977 39.6652,18.3345 90.1672,27.5017 151.5,27.5017 40.6658,0 80.9999,-5.3348 121,-16.0016 39.9997,-10.6668 74.6674,-25.9994 104,-45.9978l-33.0009 -80.0022c-29.999,20.0012 -61.6677,34.5005 -95.0003,43.5004 -33.3326,8.99999 -65.6674,13.5014 -96.9987,13.5014 -39.3335,0 -71.6683,-5.00031 -97.0015,-15.0009 -25.3332,-10.0006 -43.8321,-23.332 -55.4995,-39.9997 -11.6674,-16.6677 -17.5011,-35.3338 -17.5011,-56.0012 0,-24.6671 7.83496,-44.331 23.502,-59.0003 15.6671,-14.6664 36,-26.331 60.9987,-34.9993 25.0016,-8.66551 52.5004,-16.5005 82.4995,-23.4992 30.0019,-7.00157 60.1682,-14.8337 90.5017,-23.4992 30.3335,-8.66834 57.9996,-20.0012 82.9984,-34.0016 25.0016,-14.0003 45.1672,-32.6664 60.4998,-55.9984 15.3354,-23.3348 23.0003,-53.3338 23.0003,-89.9999 0,-35.3338 -9.66614,-68.1675 -28.9984,-98.501 -19.3351,-30.3335 -49.1669,-54.6661 -89.501,-73.0006 -40.3341,-18.3316 -91.1678,-27.4989 -152.501,-27.4989z"/></g><g transform="translate(45109.93,17440.49) scale(3.527780,-3.527780)"><path d="M394.999 -7.99937c-91.9984,0 -164.333,26.3338 -217,78.9987 -52.6648,52.6677 -78.9987,129.668 -78.9987,231.001l0 398.001 100.001 0 0 -394.001c0,-78.0009 17.1666,-135 51.4998,-171 34.3332,-36 82.834,-54 145.499,-54 63.3344,0 112.167,18 146.5,54 34.3332,36 51.4998,92.999 51.4998,171l0 394.001 97.0015 0 0 -398.001c0,-101.333 -26.1666,-178.333 -78.4998,-231.001 -52.336,-52.6648 -124.835,-78.9987 -217.502,-78.9987z"/></g><g transform="translate(47896.88,17440.49) scale(3.527780,-3.527780)"><path d="M105.001 0l0 700.001 99.9977 0 0 -613 379 0 0 -87.0009 -478.998 0z"/></g><g transform="translate(49988.85,17440.49) scale(3.527780,-3.527780)"><path d="M244 0l0 613 -240.001 0 0 87.0009 579.002 0 0 -87.0009 -240.001 0 0 -613 -98.9999 0z"/></g></g></svg>